<?xml version="1.0" encoding="UTF-8" standalone="no" ?>
<!DOCTYPE svg PUBLIC "-//W3C//DTD SVG 1.1//EN" "http://www.w3.org/Graphics/SVG/1.1/DTD/svg11.dtd">
<svg xmlns="http://www.w3.org/2000/svg" xmlns:xlink="http://www.w3.org/1999/xlink" version="1.1" width="1280" height="1024" viewBox="0 0 1280 1024" xml:space="preserve">
<desc>Created with Fabric.js 3.1.0</desc>
<defs>
</defs>
<g transform="matrix(1.9692780337941629 0 0 1.9692780337941629 640.0153846153846 512.012312418764)" id="background-logo"  >
<rect style="stroke: none; stroke-width: 1; stroke-dasharray: none; stroke-linecap: butt; stroke-dashoffset: 0; stroke-linejoin: miter; stroke-miterlimit: 4; fill: rgb(255,255,255); fill-rule: nonzero; opacity: 1;"  paint-order="stroke"  x="-325" y="-260" rx="0" ry="0" width="650" height="520" />
</g>
<g transform="matrix(1.9692780337941629 0 0 1.9692780337941629 640.0153846153846 423.81037776709695)" style="" id="logo-logo"  >
	<g transform="matrix(1.4972384392638614 0 0 -1.4972384392638614 0 41.49596334419783)"  >
<linearGradient id="SVGID_201495" gradientUnits="userSpaceOnUse" gradientTransform="matrix(-253.50093 -211.57138 -211.57138 253.50093 325.29102 245.44287)"  x1="0" y1="0" x2="1" y2="0">
<stop offset="0%" style="stop-color:rgb(254,200,17);stop-opacity: 1"/>
<stop offset="0.372688%" style="stop-color:rgb(254,200,17);stop-opacity: 1"/>
<stop offset="21.9786%" style="stop-color:rgb(237,140,40);stop-opacity: 1"/>
<stop offset="46.988600000000005%" style="stop-color:rgb(223,69,46);stop-opacity: 1"/>
<stop offset="61.477599999999995%" style="stop-color:rgb(200,43,90);stop-opacity: 1"/>
<stop offset="83.4343%" style="stop-color:rgb(118,66,147);stop-opacity: 1"/>
<stop offset="100%" style="stop-color:rgb(75,59,147);stop-opacity: 1"/>
</linearGradient>
<path style="stroke: none; stroke-width: 1; stroke-dasharray: none; stroke-linecap: butt; stroke-dashoffset: 0; stroke-linejoin: miter; stroke-miterlimit: 4; fill: url(#SVGID_201495); fill-rule: nonzero; opacity: 1;"  paint-order="stroke"  transform=" translate(-161.45198154236826, -102.15175989638075)" d="M 154.219 73.989 C 137.67 62.201 122.302 67.817 122.403 88.832 v 0 c 0.051 11.194 0.179 30.686 0.248 45.412 v 0 c 0.068 14.443 -7.553 16.582 -19.537 7.556 v 0 C 88.174 130.548 66.072 96.575 57.65 70.313 v 0 c 5.777 7.773 16.406 17.936 26.361 25.693 v 0 L 83.829 58.077 C 83.723 35.123 108.518 20.631 128.489 32.05 v 0 l 121.707 69.494 c 19.968 11.415 20.105 40.122 0.242 51.695 v 0 l -39.371 23 C 198.501 132.613 173.636 87.777 154.219 73.989" stroke-linecap="round" />
</g>
	<g transform="matrix(1.4972384392638614 0 0 -1.4972384392638614 -18.352372533801088 -66.2506270083096)"  >
<linearGradient id="SVGID_201496" gradientUnits="userSpaceOnUse" gradientTransform="matrix(-252.50003 -212.77087 -212.77087 252.50003 280.79102 298.22705)"  x1="0" y1="0" x2="1" y2="0">
<stop offset="0%" style="stop-color:rgb(254,200,17);stop-opacity: 1"/>
<stop offset="0.372688%" style="stop-color:rgb(254,200,17);stop-opacity: 1"/>
<stop offset="21.9786%" style="stop-color:rgb(237,140,40);stop-opacity: 1"/>
<stop offset="46.988600000000005%" style="stop-color:rgb(223,69,46);stop-opacity: 1"/>
<stop offset="61.477599999999995%" style="stop-color:rgb(200,43,90);stop-opacity: 1"/>
<stop offset="83.4343%" style="stop-color:rgb(118,66,147);stop-opacity: 1"/>
<stop offset="100%" style="stop-color:rgb(75,59,147);stop-opacity: 1"/>
</linearGradient>
<path style="stroke: none; stroke-width: 1; stroke-dasharray: none; stroke-linecap: butt; stroke-dashoffset: 0; stroke-linejoin: miter; stroke-miterlimit: 4; fill: url(#SVGID_201496); fill-rule: nonzero; opacity: 1;"  paint-order="stroke"  transform=" translate(-149.1945, -174.11530793718754)" d="m 189.031 189.009 l -60.21 34.749 C 108.904 235.236 84.039 220.865 84.039 197.91 v 0 v -31.89 c 8.374 7.805 17.623 14.161 27.334 17.409 v 0 c 22.955 7.628 34.115 -3.848 34.115 -20.623 v 0 v -32.348 c 0 -17.375 12.749 -18.682 25.921 -2.649 v 0 c 8.617 10.526 20.201 31.676 29.241 54.455 v 0 c 6.676 16.774 11.973 34.432 13.7 49.405 v 0 c -2.365 -9.039 -13.628 -27.72 -25.319 -42.66" stroke-linecap="round" />
</g>
</g>
<g transform="matrix(1.9692780337941629 0 0 1.9692780337941629 638.8547798366787 829.3590182597009)" id="text-logo-path"  >
<path style="stroke: none; stroke-width: 0; stroke-dasharray: none; stroke-linecap: butt; stroke-dashoffset: 0; stroke-linejoin: miter; stroke-miterlimit: 4; fill: rgb(97,63,147); fill-rule: nonzero; opacity: 1;"  paint-order="stroke"  transform=" translate(-156.32602414975375, 18.095)" d="M 9.57 -0.87 L 0.42 -35.29 Q 0.21 -35.85 7.05 -35.85 Q 13.9 -35.85 13.9 -35.5 L 13.9 -35.5 L 19.03 -11.37 L 22.85 -35.15 Q 23.05 -35.78 29.88 -35.78 L 29.88 -35.78 Q 36.78 -35.78 36.57 -35.22 L 36.57 -35.22 L 26.56 -0.49 Q 26.07 0.21 18.11 0.21 Q 10.16 0.21 9.57 -0.87 L 9.57 -0.87 Z M 38 -11.72 L 38 -11.72 Q 38 -23.3 51.83 -23.3 L 51.83 -23.3 L 55.75 -23.3 L 55.75 -23.99 Q 55.75 -25.83 55.14 -26.36 Q 54.53 -26.9 52.31 -26.9 L 52.31 -26.9 Q 49.61 -26.9 44.65 -25.76 L 44.65 -25.76 Q 42.68 -29.29 42.68 -31.55 Q 42.68 -33.8 43.89 -34.43 L 43.89 -34.43 Q 47.95 -36.19 55 -36.19 Q 62.06 -36.19 64.97 -32.9 Q 67.88 -29.61 67.88 -23.16 L 67.88 -23.16 L 67.88 -11.93 L 70.31 -11.93 Q 71.52 -11.93 72.18 -10.5 Q 72.84 -9.08 72.84 -6.6 Q 72.84 -4.13 71.61 -1.72 Q 70.38 0.69 68.23 0.69 L 68.23 0.69 Q 64.38 0.69 62.06 -1.35 L 62.06 -1.35 Q 60.98 -2.22 60.43 -3.4 L 60.43 -3.4 Q 57.2 0.69 50.37 0.69 L 50.37 0.69 Q 50.3 0.69 50.27 0.69 L 50.27 0.69 Q 45.07 0.69 41.53 -3 Q 38 -6.69 38 -11.72 Z M 50.34 -12.72 L 50.34 -12.72 Q 50.34 -11.16 51.19 -10.33 Q 52.04 -9.5 53.35 -9.5 Q 54.67 -9.5 55.75 -10.57 L 55.75 -10.57 L 55.75 -16.05 L 53.74 -16.05 Q 50.34 -16.05 50.34 -12.72 Z M 76.86 -0.49 L 76.86 -0.49 L 76.86 -48.85 Q 76.86 -49.92 83.76 -49.92 L 83.76 -49.92 Q 89.79 -49.71 89.79 -49.19 L 89.79 -49.19 L 89.79 -0.55 Q 89.79 0.07 82.54 0.07 L 82.54 0.07 Q 76.86 0 76.86 -0.49 Z M 99.65 -4.09 Q 94.82 -8.88 94.82 -17.35 Q 94.82 -25.83 99.48 -31.01 Q 104.14 -36.19 111.23 -36.19 Q 118.32 -36.19 122.19 -32.59 Q 126.05 -28.98 126.05 -23.78 L 126.05 -23.78 Q 126.05 -12.27 112.84 -12.27 L 112.84 -12.27 L 107.96 -12.27 Q 107.96 -10.16 109.13 -9.34 Q 110.31 -8.53 112.57 -8.53 L 112.57 -8.53 Q 117.52 -8.53 122.03 -10.78 L 122.03 -10.78 Q 122.1 -10.85 122.66 -9.81 L 122.66 -9.81 Q 124.35 -6.76 124.35 -4.65 Q 124.35 -2.53 123 -1.91 L 123 -1.91 Q 118.56 0.73 111.6 0.73 L 111.6 0.73 Q 111.56 0.69 111.49 0.69 L 111.49 0.69 Q 104.49 0.69 99.65 -4.09 Z M 107.96 -22.22 L 107.96 -20.04 L 111.8 -20.04 Q 111.84 -20.04 111.87 -20.04 L 111.87 -20.04 Q 114.13 -20.04 114.13 -22.43 L 114.13 -22.43 Q 114.13 -25.41 111.21 -25.41 L 111.21 -25.41 Q 109.86 -25.41 108.91 -24.6 Q 107.96 -23.78 107.96 -22.22 L 107.96 -22.22 Z M 128.9 -30.54 L 128.9 -30.54 Q 128.9 -31.83 129.14 -33.66 Q 129.38 -35.5 130.18 -35.5 L 130.18 -35.5 L 133.92 -35.5 L 133.92 -41.74 Q 133.92 -43.16 139.92 -43.16 Q 145.92 -43.16 145.92 -42.02 L 145.92 -42.02 L 145.92 -37.48 L 146.02 -35.5 L 152.05 -35.5 Q 153.27 -35.5 153.27 -30.68 L 153.27 -30.68 Q 153.27 -25.55 152.05 -25.55 L 152.05 -25.55 L 146.99 -25.55 L 146.99 -0.42 Q 146.99 0.42 141.48 0.42 L 141.48 0.42 Q 141.27 0.42 141.03 0.42 L 141.03 0.42 Q 133.92 0.14 133.92 -0.49 L 133.92 -0.49 L 133.92 -25.62 L 130.32 -25.62 Q 128.9 -25.62 128.9 -30.54 Z M 160.25 -4.09 Q 155.42 -8.88 155.42 -17.35 Q 155.42 -25.83 160.08 -31.01 Q 164.74 -36.19 171.83 -36.19 Q 178.92 -36.19 182.79 -32.59 Q 186.65 -28.98 186.65 -23.78 L 186.65 -23.78 Q 186.65 -12.27 173.44 -12.27 L 173.44 -12.27 L 168.56 -12.27 Q 168.56 -10.16 169.73 -9.34 Q 170.91 -8.53 173.17 -8.53 L 173.17 -8.53 Q 178.12 -8.53 182.63 -10.78 L 182.63 -10.78 Q 182.7 -10.85 183.25 -9.81 L 183.25 -9.81 Q 184.95 -6.76 184.95 -4.65 Q 184.95 -2.53 183.6 -1.91 L 183.6 -1.91 Q 179.16 0.73 172.2 0.73 L 172.2 0.73 Q 172.16 0.69 172.09 0.69 L 172.09 0.69 Q 165.09 0.69 160.25 -4.09 Z M 168.56 -22.22 L 168.56 -20.04 L 172.4 -20.04 Q 172.44 -20.04 172.47 -20.04 L 172.47 -20.04 Q 174.73 -20.04 174.73 -22.43 L 174.73 -22.43 Q 174.73 -25.41 171.81 -25.41 L 171.81 -25.41 Q 170.46 -25.41 169.51 -24.6 Q 168.56 -23.78 168.56 -22.22 L 168.56 -22.22 Z M 193.76 -4.77 Q 189.91 -9.81 189.91 -18.25 Q 189.91 -26.69 194.61 -31.44 Q 199.31 -36.19 207.47 -36.19 Q 215.63 -36.19 221.15 -32.45 L 221.15 -32.45 L 221.15 12.79 Q 221.15 13.73 215.25 13.73 L 215.25 13.73 Q 215.15 13.73 215.05 13.73 L 215.05 13.73 Q 208.94 13.69 208.94 12.79 L 208.94 12.79 L 208.94 -0.28 Q 206.1 0.28 204.13 0.28 L 204.13 0.28 Q 197.61 0.28 193.76 -4.77 Z M 204.26 -23.71 Q 202.63 -22.29 202.63 -17.58 Q 202.63 -12.86 204.54 -11.58 L 204.54 -11.58 Q 205.62 -10.89 206.73 -10.89 L 206.73 -10.89 Q 206.79 -10.85 206.83 -10.85 L 206.83 -10.85 Q 207.9 -10.85 208.94 -11.23 L 208.94 -11.23 L 208.94 -24.44 Q 207.87 -24.72 206.6 -24.72 Q 205.34 -24.72 204.26 -23.71 L 204.26 -23.71 Z M 227.18 -14.14 L 227.18 -14.14 L 227.18 -35.08 Q 227.18 -35.88 233.04 -35.88 L 233.04 -35.88 Q 233.18 -35.85 233.28 -35.85 L 233.28 -35.85 Q 239.38 -35.85 239.38 -35.08 L 239.38 -35.08 L 239.38 -14.35 Q 239.38 -10.82 241.67 -10.78 L 241.67 -10.78 Q 243.37 -10.78 245.48 -12.27 L 245.48 -12.27 L 245.48 -35.08 Q 245.48 -35.78 251.52 -35.78 Q 257.55 -35.78 257.55 -35.08 L 257.55 -35.08 L 257.55 -11.79 L 259.42 -11.79 Q 261.81 -11.79 261.81 -7.31 L 261.81 -7.31 Q 261.81 -4.82 260.84 -2.43 L 260.84 -2.43 Q 259.42 0.69 256.99 0.69 L 256.99 0.69 Q 252.24 0.69 249.96 -3.19 L 249.96 -3.19 L 249.89 -3.12 Q 245.59 0.69 240.7 0.69 L 240.7 0.69 Q 240.67 0.69 240.6 0.69 L 240.6 0.69 Q 233.7 0.69 230.44 -2.74 Q 227.18 -6.17 227.18 -14.14 Z M 269.63 -4.09 Q 264.79 -8.88 264.79 -17.35 Q 264.79 -25.83 269.46 -31.01 Q 274.12 -36.19 281.21 -36.19 Q 288.3 -36.19 292.16 -32.59 Q 296.03 -28.98 296.03 -23.78 L 296.03 -23.78 Q 296.03 -12.27 282.82 -12.27 L 282.82 -12.27 L 277.93 -12.27 Q 277.93 -10.16 279.11 -9.34 Q 280.29 -8.53 282.54 -8.53 L 282.54 -8.53 Q 287.5 -8.53 292.01 -10.78 L 292.01 -10.78 Q 292.08 -10.85 292.63 -9.81 L 292.63 -9.81 Q 294.33 -6.76 294.33 -4.65 Q 294.33 -2.53 292.98 -1.91 L 292.98 -1.91 Q 288.54 0.73 281.57 0.73 L 281.57 0.73 Q 281.54 0.69 281.47 0.69 L 281.47 0.69 Q 274.47 0.69 269.63 -4.09 Z M 277.93 -22.22 L 277.93 -20.04 L 281.78 -20.04 Q 281.82 -20.04 281.85 -20.04 L 281.85 -20.04 Q 284.1 -20.04 284.1 -22.43 L 284.1 -22.43 Q 284.1 -25.41 281.19 -25.41 L 281.19 -25.41 Q 279.84 -25.41 278.89 -24.6 Q 277.93 -23.78 277.93 -22.22 L 277.93 -22.22 Z M 298.87 0.28 L 298.87 0.28 L 298.87 -12.48 Q 298.87 -13.1 305.58 -13.12 Q 312.29 -13.14 312.29 -12.79 L 312.29 -12.79 L 312.29 0.21 Q 312.29 0.69 305.58 0.69 Q 298.87 0.69 298.87 0.28 Z" stroke-linecap="round" />
</g>
</svg>